<?xml version="1.0" encoding="utf-8"?>
<!-- Generator: Adobe Illustrator 19.0.0, SVG Export Plug-In . SVG Version: 6.00 Build 0)  -->
<svg version="1.1" id="Layer_1" xmlns="http://www.w3.org/2000/svg" xmlns:xlink="http://www.w3.org/1999/xlink" x="0px" y="0px"
	 viewBox="-105 338.2 399.9 116.8" style="enable-background:new -105 338.2 399.9 116.8;" xml:space="preserve">
<style type="text/css">
	.st0{fill:#8D9096;}
</style>
<g id="Intuit_Logo_5_">
	<g>
		<g>
			<g>
				<path class="st0" d="M163.6,453H153c-2.1,0-3.8-1.2-4-3.3l-0.2-4.1c-7.6,6.1-16.7,9.4-26.2,9.4c-18.5,0-26.1-11.7-26.1-29.5
					v-48.8c0-2.8,1.6-3.8,4.3-3.8h11.6c2.6,0,4.1,0.8,4.1,3.8V422c0,9.1,2.3,15.3,12.2,15.3c6.3,0,14.2-3.5,19.1-7.9v-52.8
					c0-2.8,1.5-3.8,4.1-3.8h11.7c2.6,0,4.1,0.8,4.1,3.8v71.7C167.8,451.9,166.9,453,163.6,453z"/>
			</g>
		</g>
		<path class="st0" d="M-105,376.1c0-2,1-3.3,3-3.3h14c2,0,3.1,1.2,3.1,3.3v72.7c0,3-1.3,4.1-4.1,4.1h-11.6c-3,0-4.3-1.2-4.3-4.1
			V376.1z"/>
		<path class="st0" d="M188.5,376.1c0-2,1-3.3,3-3.3h14c2,0,3.1,1.2,3.1,3.3v72.7c0,3-1.3,4.1-4.1,4.1h-11.6c-3,0-4.3-1.2-4.3-4.1
			V376.1z"/>
		<path class="st0" d="M3.5,453H-8.4c-3,0-4-1.5-4-4.3v-44.9c0-9.1-2.5-15.5-12.5-15.5c-6.4,0-14.4,3.5-19.5,7.9v52.6
			c0,2.8-1.2,4.1-4,4.1h-12.1c-2.5,0-4-1.3-4-4V377c0-2.6,1.2-4.1,4.1-4.1h10.7c2.3,0,3.8,0.7,4,3.1l0.2,4.4
			c7.6-6.1,17.2-9.6,26.7-9.6c18.5,0,26.1,11.5,26.1,29.5v48.3C7.5,451.5,6.5,453,3.5,453z"/>
		<g>
			<g>
				<path class="st0" d="M62.3,350.3c0-6.7-5.4-12.1-12.1-12.1c-6.7,0-12.1,5.4-12.1,12.1s5.4,12.1,12.1,12.1
					C56.9,362.4,62.3,357,62.3,350.3z"/>
			</g>
			<path class="st0" d="M79.6,372.9c2,0,3.1,0.7,3.1,2.8v11.6c0,2-1.3,3.1-3.3,3.1H60.3v58.5c0,3-1.3,4.1-4.3,4.1H44.5
				c-3,0-4.3-1.2-4.3-4.1v-58.5H21.1c-2,0-3.3-1.2-3.3-3.1v-11.6c0-2.1,1.2-2.8,3.1-2.8C20.9,372.9,79.6,372.9,79.6,372.9z"/>
		</g>
		<g>
			<g>
				<path class="st0" d="M267.1,350.3c0-6.7-5.4-12.1-12.1-12.1c-6.7,0-12.1,5.4-12.1,12.1s5.4,12.1,12.1,12.1
					C261.7,362.4,267.1,357,267.1,350.3z"/>
			</g>
			<path class="st0" d="M284.3,372.9c2,0,3.1,0.7,3.1,2.8v11.6c0,2-1.3,3.1-3.3,3.1H265v58.5c0,3-1.3,4.1-4.3,4.1h-11.5
				c-3,0-4.3-1.2-4.3-4.1l0-58.5h-19.1c-2,0-3.3-1.2-3.3-3.1v-11.6c0-2.1,1.2-2.8,3.1-2.8C225.7,372.9,284.3,372.9,284.3,372.9z"/>
		</g>
	</g>
	<g>
		<path class="st0" d="M289.6,442.8c2.9,0,5.4,2.3,5.4,5.3c0,3.1-2.4,5.4-5.4,5.4c-2.9,0-5.4-2.3-5.4-5.4
			C284.2,445.1,286.6,442.8,289.6,442.8z M289.6,452.8c2.5,0,4.4-2,4.4-4.6c0-2.6-1.9-4.5-4.4-4.5c-2.5,0-4.4,2-4.4,4.5
			C285.1,450.8,287.1,452.8,289.6,452.8z M287.5,445.1h2.4c1.5,0,2.2,0.6,2.2,1.8c0,1.1-0.7,1.6-1.6,1.7l1.8,2.8h-1l-1.7-2.7h-1v2.7
			h-1L287.5,445.1L287.5,445.1z M288.4,447.8h1c0.9,0,1.6,0,1.6-1c0-0.8-0.7-1-1.4-1h-1.3L288.4,447.8L288.4,447.8z"/>
	</g>
</g>
</svg>
